<svg xmlns="http://www.w3.org/2000/svg" xmlns:xlink="http://www.w3.org/1999/xlink" width="1280pt" height="640pt" viewBox="0 0 1280 640"><g data-name="Layer 1"><clipPath id="a"><path transform="matrix(1 0 0 -1 0 640)" d="M0 640h1280V0H0z"/></clipPath><g clip-path="url(#a)"><symbol id="b"><path d="M.14 0v.203c0 .11-.002.205-.006.294l.003.001C.17.419.214.332.254.26L.398 0h.16v.674h-.14V.477c0-.101.003-.192.013-.281H.428c-.03.076-.07.16-.11.231l-.14.247H0V0h.14z"/></symbol><symbol id="c"><path d="M.157 0v.489H.005V0h.152M.081.702C.032.702 0 .669.001.625 0 .583.032.549.08.549c.05 0 .082.034.082.076C.161.669.13.702.081.702z"/></symbol><symbol id="d"><path d="M.377.134A.234.234 0 0 0 .29.119C.216.119.156.166.156.256c-.001.08.051.137.131.137.04 0 .067-.007.085-.015l.024.113A.353.353 0 0 1 .28.51C.098.51 0 .393 0 .25 0 .096.101 0 .259 0a.37.37 0 0 1 .136.022L.377.134z"/></symbol><symbol id="e"><path d="M0 0h.152v.29a.08.08 0 0 0 .081.087C.29.377.312.333.312.269V0h.152v.286C.464.433.39.5.293.5A.17.17 0 0 1 .214.481a.183.183 0 0 1-.06-.05H.152V.71H0V0z"/></symbol><symbol id="f"><path d="M.46.206a.361.361 0 0 1 .005.06C.465.387.405.51.247.51.077.51 0 .373 0 .249 0 .096.095 0 .261 0c.066 0 .127.01.177.03l-.02.103a.43.43 0 0 0-.135-.02C.212.113.15.143.145.206H.46M.144.31c.004.041.03.099.094.099.07 0 .086-.062.086-.099h-.18z"/></symbol><symbol id="g"><path d="M.503.148A.38.38 0 0 0 .376.126C.24.126.16.211.16.346c0 .15.094.223.215.223A.33.33 0 0 0 .503.544l.031.121a.397.397 0 0 1-.166.03C.164.695 0 .567 0 .337 0 .145.12 0 .353 0c.082 0 .145.015.173.029L.503.148z"/></symbol><symbol id="h"><path d="M0 0z"/></symbol><symbol id="i"><path d="M.004 0h.152v.243h.002C.18.211.226.187.285.187c.109 0 .222.084.222.262 0 .156-.096.249-.203.249A.188.188 0 0 1 .141.619H.139L.132.687H0C.002.642.004.587.004.523V0m.152.475c0 .009.001.019.003.027.01.045.048.077.091.077C.318.579.353.52.353.442.353.359.314.304.248.304a.092.092 0 0 0-.089.072.151.151 0 0 0-.003.032v.067z"/></symbol><symbol id="j"><path d="M.447.011A.758.758 0 0 0 .44.13V.3C.44.415.388.511.225.511a.404.404 0 0 1-.19-.043L.063.37c.032.02.085.037.135.037C.273.407.287.37.287.344V.337C.114.338 0 .277 0 .15 0 .072.059 0 .158 0c.058 0 .108.021.14.06h.003L.31.011h.137M.292.189A.109.109 0 0 0 .289.163.083.083 0 0 0 .21.107C.176.107.15.126.15.165c0 .059.062.078.142.077V.189z"/></symbol><symbol id="k"><path d="M0 .034A.346.346 0 0 1 .158 0C.298 0 .37.067.37.158.369.23.33.277.237.309.177.33.158.342.158.365c0 .025.021.04.058.04A.24.24 0 0 0 .322.377l.027.105A.328.328 0 0 1 .211.51C.09.51.012.441.012.35.011.292.05.237.151.203.208.184.223.172.223.147S.204.106.158.106a.297.297 0 0 0-.131.037L0 .034z"/></symbol><use xlink:href="#b" transform="matrix(194.0356 0 0 -194.0356 12.806 393.183)" fill="#3c54a3"/><use xlink:href="#c" transform="matrix(194.0356 0 0 -194.0356 145.333 393.183)" fill="#3c54a3"/><use xlink:href="#d" transform="matrix(194.0356 0 0 -194.0356 194.036 395.123)" fill="#3c54a3"/><use xlink:href="#e" transform="matrix(194.0356 0 0 -194.0356 286.979 393.183)" fill="#3c54a3"/><use xlink:href="#f" transform="matrix(194.0356 0 0 -194.0356 395.25 395.123)" fill="#3c54a3"/><use xlink:href="#g" transform="matrix(194.0356 0 0 -194.0356 498.09 395.123)" fill="#3c54a3"/><use xlink:href="#h" transform="matrix(194.0356 0 0 -194.0356 606.75 393.183)" fill="#3c54a3"/><use xlink:href="#h" transform="matrix(194.0356 0 0 -194.0356 645.944 393.183)" fill="#3c54a3"/><use xlink:href="#h" transform="matrix(194.0356 0 0 -194.0356 685.14 393.183)" fill="#3c54a3"/><use xlink:href="#h" transform="matrix(194.0356 0 0 -194.0356 724.335 393.183)" fill="#3c54a3"/><use xlink:href="#h" transform="matrix(194.0356 0 0 -194.0356 763.53 393.183)" fill="#3c54a3"/><use xlink:href="#h" transform="matrix(194.0356 0 0 -194.0356 802.725 393.183)" fill="#3c54a3"/><use xlink:href="#h" transform="matrix(194.0356 0 0 -194.0356 841.92 393.183)" fill="#3c54a3"/><use xlink:href="#i" transform="matrix(194.0356 0 0 -194.0356 892.176 431.602)" fill="#3c54a3"/><use xlink:href="#j" transform="matrix(194.0356 0 0 -194.0356 1002.776 395.317)" fill="#3c54a3"/><use xlink:href="#k" transform="matrix(194.0356 0 0 -194.0356 1106.003 395.123)" fill="#3c54a3"/><use xlink:href="#k" transform="matrix(194.0356 0 0 -194.0356 1190.214 395.123)" fill="#3c54a3"/><path d="M752.452 335.464c-1.207.645-2.256 1.384-3.224 2.13.295 3.489.335 7.08.043 10.685a56.913 56.913 0 0 1-1.02 7.01c.613 1.08 1.294 1.837 1.95 2.385 1.581 1.365 3.165 1.658 3.202 2.733.123 1.536-2.672 2.959-5.542 3.263-.54.039-1.12.074-1.936-.033-1.454 4.213-3.346 8.224-5.665 11.913-.046.574-.004 1.072.09 1.45.478 1.73.627 2.938 3.041 4.7 2.722 2.035 2.344 3.654 1.711 4.345-.68.77-3.284-.183-6.403-.89-1.458-.323-3.13-.541-5.135-.744a62.012 62.012 0 0 1-12.997 10.783c1.638 3.72 3.32 4.846 4.568 8.782.72 2.327-.164 4.069-1.853 4.552-1.18.316-2.62-.75-3.3-1.505-2.637-3.1-3.46-6.177-4.94-8.771a60.922 60.922 0 0 1-16.59 5.256c-1.333 2.696-1.502 4.786-1.256 6.332.33 2.047 1.302 3.28.655 4.135-.925 1.245-3.995.46-6.334-1.213-1.09-.79-2.233-1.46-4.796-6.987-.244-.555-.456-.985-.704-1.5-.78-.022-1.607-.006-2.427-.073-8.316-.672-16.129-2.995-23.13-6.655-1.013.785-1.82 1.585-2.375 2.324-2.202 2.75-2.608 4.2-5.1 6.474-1.473 1.365-3.374 1.418-4.924-.316-.302-.354-.459-1.975.577-5.603 1.43-4.915 2.627-5.973 3.192-8.36-2.059-1.57-4.032-3.172-5.825-4.967-1.342 1.294-2.469 2.48-4.675 3.746-2.12 1.23-3.978.75-4.8-.801-.61-1.121.14-2.752.742-3.57 1.384-1.825 2.887-3.064 4.338-4.184-1.69-2.033-3.208-4.177-4.596-6.392-.57-.088-1.1-.172-1.666-.3-1.298-.27-7.135-1.526-9.28-4.05-.265-.31-1.278-1.547-.635-2.361.824-1.005 3.498-.418 5.586-.744a6.992 6.992 0 0 0 1.658-.608 60.13 60.13 0 0 1-4.918-20.77c-6.158-1.363-10.415-.223-11.396-2.365-.632-1.37.363-3.475 1.72-4.438 1.877-1.291 4.481-.338 5.854.02 1.011.247 2.277.39 3.77.305.014-.7-.01-1.403.048-2.14a60.769 60.769 0 0 1 6.411-22.657c-1.855-2.047-4.267-4.345-5.978-8.69-1.026-2.598-2.094-6.726-.786-7.61.61-.404 1.65.01 6.85 3.523 2.854 1.922 4.451 3.082 5.504 3.827a67.19 67.19 0 0 1 4.112-4.946c-1.689-2.57-2.37-4.851-1.617-6.522.75-1.63 2.871-2.861 4.803-2.787 1.686.054 2.832 1.178 4.027 2.718a60.697 60.697 0 0 1 26.781-11.937c.815-4.47.69-7.49 2.438-8.215 1.664-.69 3.93 1.39 4.686 3.76.454 1.522.664 2.488.824 3.572 2.526-.125 5.041-.128 7.622.08.738.06 1.47.202 2.206.262a42.085 42.085 0 0 1 1.823-5.708c1.29-3.195 2.21-5.39 3.571-5.402 1.318.024 2.551.577 2.98 2.426.448 2.099-.465 4.21-.8 7.854-.05.614-.11 1.35-.136 2.174a60.796 60.796 0 0 1 19.115 8.392.894.894 0 0 0 .344-.178c1.132-.733 2.614-1.727 5.041-3.18 1.78-1.093 3.2-1.308 4.196-.898 3.67 1.534.063 7.387-.13 7.743-.633 1.185-1.07 2.016-1.507 2.806.996.946 2.033 1.896 2.94 2.918 2.163 2.319 4.114 4.704 5.841 7.318.551.828 1.055 1.735 1.607 2.563 1.167-.153 2.675-.443 4.883-.718 6.671-.904 7.77-.732 8.093-.13.802 1.303-1.846 4.47-3.152 5.313-2.658 1.764-4.342 2.7-5.66 3.707a57.274 57.274 0 0 1 3.077 9.363c2.386.069 4.286-.478 5.745-1.185 2.575-1.235 4.68-3.292 6.522-2.112 1.214.8 2.205 2.818 1.867 4.44-.584 2.633-4.479 2.359-9.446 5.133" fill="#cae4f6"/><path stroke-width=".25" stroke-miterlimit="10" fill="none" stroke="#3c54a3" d="M752.452 335.464c-1.207.645-2.256 1.384-3.224 2.13.295 3.489.335 7.08.043 10.685a56.913 56.913 0 0 1-1.02 7.01c.613 1.08 1.294 1.837 1.95 2.385 1.581 1.365 3.165 1.658 3.202 2.733.123 1.536-2.672 2.959-5.542 3.263-.54.039-1.12.074-1.936-.033-1.454 4.213-3.346 8.224-5.665 11.913-.046.574-.004 1.072.09 1.45.478 1.73.627 2.938 3.041 4.7 2.722 2.035 2.344 3.654 1.711 4.345-.68.77-3.284-.183-6.403-.89-1.458-.323-3.13-.541-5.135-.744a62.012 62.012 0 0 1-12.997 10.783c1.638 3.72 3.32 4.846 4.568 8.782.72 2.327-.164 4.069-1.853 4.552-1.18.316-2.62-.75-3.3-1.505-2.637-3.1-3.46-6.177-4.94-8.771a60.922 60.922 0 0 1-16.59 5.256c-1.333 2.696-1.502 4.786-1.256 6.332.33 2.047 1.302 3.28.655 4.135-.925 1.245-3.995.46-6.334-1.213-1.09-.79-2.233-1.46-4.796-6.987-.244-.555-.456-.985-.704-1.5-.78-.022-1.607-.006-2.427-.073-8.316-.672-16.129-2.995-23.13-6.655-1.013.785-1.82 1.585-2.375 2.324-2.202 2.75-2.608 4.2-5.1 6.474-1.473 1.365-3.374 1.418-4.924-.316-.302-.354-.459-1.975.577-5.603 1.43-4.915 2.627-5.973 3.192-8.36-2.059-1.57-4.032-3.172-5.825-4.967-1.342 1.294-2.469 2.48-4.675 3.746-2.12 1.23-3.978.75-4.8-.801-.61-1.121.14-2.752.742-3.57 1.384-1.825 2.887-3.064 4.338-4.184-1.69-2.033-3.208-4.177-4.596-6.392-.57-.088-1.1-.172-1.666-.3-1.298-.27-7.135-1.526-9.28-4.05-.265-.31-1.278-1.547-.635-2.361.824-1.005 3.498-.418 5.586-.744a6.992 6.992 0 0 0 1.658-.608 60.13 60.13 0 0 1-4.918-20.77c-6.158-1.363-10.415-.223-11.396-2.365-.632-1.37.363-3.475 1.72-4.438 1.877-1.291 4.481-.338 5.854.02 1.011.247 2.277.39 3.77.305.014-.7-.01-1.403.048-2.14a60.769 60.769 0 0 1 6.411-22.657c-1.855-2.047-4.267-4.345-5.978-8.69-1.026-2.598-2.094-6.726-.786-7.61.61-.404 1.65.01 6.85 3.523 2.854 1.922 4.451 3.082 5.504 3.827a67.19 67.19 0 0 1 4.112-4.946c-1.689-2.57-2.37-4.851-1.617-6.522.75-1.63 2.871-2.861 4.803-2.787 1.686.054 2.832 1.178 4.027 2.718a60.697 60.697 0 0 1 26.781-11.937c.815-4.47.69-7.49 2.438-8.215 1.664-.69 3.93 1.39 4.686 3.76.454 1.522.664 2.488.824 3.572 2.526-.125 5.041-.128 7.622.08.738.06 1.47.202 2.206.262a42.085 42.085 0 0 1 1.823-5.708c1.29-3.195 2.21-5.39 3.571-5.402 1.318.024 2.551.577 2.98 2.426.448 2.099-.465 4.21-.8 7.854-.05.614-.11 1.35-.136 2.174a60.796 60.796 0 0 1 19.115 8.392.894.894 0 0 0 .344-.178c1.132-.733 2.614-1.727 5.041-3.18 1.78-1.093 3.2-1.308 4.196-.898 3.67 1.534.063 7.387-.13 7.743-.633 1.185-1.07 2.016-1.507 2.806.996.946 2.033 1.896 2.94 2.918 2.163 2.319 4.114 4.704 5.841 7.318.551.828 1.055 1.735 1.607 2.563 1.167-.153 2.675-.443 4.883-.718 6.671-.904 7.77-.732 8.093-.13.802 1.303-1.846 4.47-3.152 5.313-2.658 1.764-4.342 2.7-5.66 3.707a57.274 57.274 0 0 1 3.077 9.363c2.386.069 4.286-.478 5.745-1.185 2.575-1.235 4.68-3.292 6.522-2.112 1.214.8 2.205 2.818 1.867 4.44-.584 2.633-4.479 2.359-9.446 5.133z"/><g opacity=".18"><clipPath id="l"><path transform="matrix(1 0 0 -1 0 640)" d="M679.366 254.026h55.136v55.829h-55.136z"/></clipPath><g clip-path="url(#l)"><path d="M728.058 374.825c-9.782 12.325-27.17 14.811-38.836 5.551-11.667-9.259-13.195-26.757-3.412-39.082 9.782-12.326 27.17-14.81 38.836-5.552 11.667 9.26 13.194 26.758 3.412 39.083" fill="#3c54a4"/></g></g><path d="M789.59 256.505h-5.314c-6.355 0-11.47 4.96-11.47 11.316v80.757c0 6.2 5.115 11.316 11.47 11.316h6.82v63.397c0 2.79 2.326 5.115 5.116 5.115 2.634 0 4.96-2.325 4.96-5.115v-63.397h6.975c6.2 0 11.315-5.115 11.315-11.316v-56.065c-14.43-2.792-26.044-17.082-29.872-36.008" fill="#cae4f6"/><path stroke-width=".25" stroke-miterlimit="10" fill="none" stroke="#3c54a3" d="M789.59 256.505h-5.314c-6.355 0-11.47 4.96-11.47 11.316v80.757c0 6.2 5.115 11.316 11.47 11.316h6.82v63.397c0 2.79 2.326 5.115 5.116 5.115 2.634 0 4.96-2.325 4.96-5.115v-63.397h6.975c6.2 0 11.315-5.115 11.315-11.316v-56.065c-14.43-2.792-26.044-17.082-29.872-36.008z"/><path d="M862.709 256.505h-6.323c-3.739 18.49-14.889 32.62-28.863 35.868v56.205c0 6.2 4.961 11.316 11.316 11.316h6.975v63.397c0 2.79 2.17 5.115 4.96 5.115s4.961-2.325 4.961-5.115v-63.397h6.974c6.201 0 11.316-5.115 11.316-11.316V267.82c0-6.356-5.115-11.316-11.316-11.316" fill="#cae4f6"/><path stroke-width=".25" stroke-miterlimit="10" fill="none" stroke="#3c54a3" d="M862.709 256.505h-6.323c-3.739 18.49-14.889 32.62-28.863 35.868v56.205c0 6.2 4.961 11.316 11.316 11.316h6.975v63.397c0 2.79 2.17 5.115 4.96 5.115s4.961-2.325 4.961-5.115v-63.397h6.974c6.201 0 11.316-5.115 11.316-11.316V267.82c0-6.356-5.115-11.316-11.316-11.316z"/><path d="M725.847 251.886a6.334 6.334 0 1 1-12.669 0 6.334 6.334 0 0 1 12.669 0" fill="#cae4f6"/><path stroke-width=".25" stroke-miterlimit="10" fill="none" stroke="#3c54a3" d="M725.847 251.886a6.334 6.334 0 1 1-12.669 0 6.334 6.334 0 0 1 12.669 0z"/><path d="M742.515 226.23a9.502 9.502 0 1 1-19.003 0 9.502 9.502 0 1 1 19.003 0" fill="#cae4f6"/><path stroke-width=".25" stroke-miterlimit="10" fill="none" stroke="#3c54a3" d="M742.515 226.23a9.502 9.502 0 1 1-19.003 0 9.502 9.502 0 1 1 19.003 0z"/><path d="M781.449 229.04c0 6.996-5.672 12.668-12.67 12.668-6.996 0-12.668-5.672-12.668-12.669 0-6.997 5.672-12.669 12.669-12.669 6.997 0 12.669 5.672 12.669 12.67" fill="#cae4f6"/><path stroke-width=".25" stroke-miterlimit="10" fill="none" stroke="#3c54a3" d="M781.449 229.04c0 6.996-5.672 12.668-12.67 12.668-6.996 0-12.668-5.672-12.668-12.669 0-6.997 5.672-12.669 12.669-12.669 6.997 0 12.669 5.672 12.669 12.67z"/><path d="M823.212 214.145c0 8.746-7.09 15.836-15.836 15.836s-15.836-7.09-15.836-15.836 7.09-15.836 15.836-15.836 15.836 7.09 15.836 15.836" fill="#cae4f6"/><path stroke-width=".25" stroke-miterlimit="10" fill="none" stroke="#3c54a3" d="M823.212 214.145c0 8.746-7.09 15.836-15.836 15.836s-15.836-7.09-15.836-15.836 7.09-15.836 15.836-15.836 15.836 7.09 15.836 15.836z"/><path d="M841.977 257.293c0 10.495-8.508 19.003-19.003 19.003-10.495 0-19.003-8.508-19.003-19.003 0-10.495 8.508-19.003 19.003-19.003 10.495 0 19.003 8.508 19.003 19.003" fill="#cae4f6"/><path stroke-width=".25" stroke-miterlimit="10" fill="none" stroke="#3c54a3" d="M841.977 257.293c0 10.495-8.508 19.003-19.003 19.003-10.495 0-19.003-8.508-19.003-19.003 0-10.495 8.508-19.003 19.003-19.003 10.495 0 19.003 8.508 19.003 19.003z"/></g></g></svg>